<svg xmlns="http://www.w3.org/2000/svg" viewBox="0 0 267 287"><defs><style>.cls-1{fill:gray;}.cls-2{fill:#999;}.cls-3{fill:#fff9bb;}.cls-4{fill:#ffe26a;}.cls-5{fill:#d4feff;}.cls-6{fill:#ffebfb;}.cls-7{fill:#aaffd3;}.cls-8{fill:#ffd9aa;}.cls-9{fill:#d6ffaa;}.cls-10{fill:#fff;}</style></defs><title>Asset 1</title><g id="Layer_2" data-name="Layer 2"><g id="Layer_10" data-name="Layer 10"><path class="cls-1" d="M49.27,255l-.26-.3-.66.3H46.78L46,255l-.61-.16-3.22.25-1.09-.25a7.71,7.71,0,0,0-1.93,1.2H37.64l-.94-1c0,.15-.13.26-.38.32a5.28,5.28,0,0,0-1.38.18,4.91,4.91,0,0,1-1.26.18l-1-.36-.89.36-.1.36h-.46l-.28.4-.2,3.06.2.43-.1.51.05,1.35.14,1.38v.41a1.62,1.62,0,0,0-.43.45,1.56,1.56,0,0,0-.22.74l.41.6-.1.76-.36.23a1.33,1.33,0,0,0,.31.71l.39.46V268l-1.1.56.25,1.33-.1,1.92L29.67,273a.73.73,0,0,1,.1.28.71.71,0,0,1-.09.31.41.41,0,0,0,0,.34.71.71,0,0,1,.07.29,2,2,0,0,1-.26.61c-.17.31-.22.5-.17.58s.07.28.17.73a2.76,2.76,0,0,0-.25.95,7.87,7.87,0,0,0,.1,1,2.21,2.21,0,0,1-.54-.07,1.47,1.47,0,0,0-.3-.07c-.27,0-.4-.45-.4-1.35l.1-.71a8.47,8.47,0,0,0-.1-1.13,8.3,8.3,0,0,1-.1-1.08l.3-3.3a4.6,4.6,0,0,1-.41-.69.55.55,0,0,1,.26-.44.62.62,0,0,1-.2-.41c0-.09.1-.18.3-.28A1.78,1.78,0,0,1,28,268a2,2,0,0,1,.17-.67,2.56,2.56,0,0,0,.18-.5l-.05-.75a4.84,4.84,0,0,1,.48-1c-.28,0-.43-.2-.43-.62a1.74,1.74,0,0,1,.63-1.21v-1.93l-.63-.94.31-2-.31-1.4.31-1.1c-.14-.43-.38-.65-.71-.65a.65.65,0,0,0-.49.23l-.73.07a2,2,0,0,0-.81.25l-.64,0-.3,0V256h-.74a3.66,3.66,0,0,1-1.4-.36l-.1.3-1.09-.3-3-.09-1.19.33q-1.35-1.06-1.35-1.41c0-.06.2-1.47.2-1.47h.84l3.68,1.38.89-.27,2.44.09,2.28.18L28,254h.4l.43-1.22.72.2.15.46.33-.14a3,3,0,0,0,1.19.81l.84-.25a2,2,0,0,1,1.45.61l.3-.36,1.93-.35,1.19.1a3.55,3.55,0,0,0,.94.14h.26a7.82,7.82,0,0,1,.78-.1l.74.12a.31.31,0,0,0,.3-.16l1-.14,1.19.25a.7.7,0,0,0,.72.08,2.64,2.64,0,0,1,.62-.15l.94.16L47,254l1.15,1Z"/><path class="cls-1" d="M51.18,276.46a2.7,2.7,0,0,1,0,.47c0,.57-.29.86-.89.86-.4,0-.68-.29-.83-.91L49,275.75v-.35a1.54,1.54,0,0,0,.24-.61,1.69,1.69,0,0,0-.44-1l.27-.6-.17-.88,1.1-.44v-.6l-.86-.52L49,270.2l0-.34,1-1.37v-1.78l-1.2-1.17.16-.49,0-1.4v-.78l-.65-.24-.72.61a2.37,2.37,0,0,1-.39.24l-.69.27-1.1,1.46-.46.11-1,1.5V267h-.27l-.12.32-.43.38a1.72,1.72,0,0,0-.36.69l-.4,1.27-.6.71a1.79,1.79,0,0,0-.27.6l-.39.35-.16.93-.84.74-.06,1h-.63l-.29.76-.69,1.14a7.71,7.71,0,0,0-1,1.18l-.22-.08H37.1l-.12.18-.38-1.25-.11-2-.13-.59.11-.74-.06-1.29.2-.07.24-3.15.11-.59-.05-.46.22-.11-.1-.25.16-1.3.19-.53-.13-.54.12-.27-.13-.22.11-1.23-.21-.17.12-.26-.06-1.41-.27-.71H36v-.24l1-1.52V258l-.15-.31-.2-1.09A6.49,6.49,0,0,0,36,255.2l.41-.56-.07-.1c.29,0,.44.13.45.41l.54.43.15.4a2.3,2.3,0,0,0,.48.56l-.09.3.25.62-.24.3.36.25,0,.89.06,1.7.24.87-.14.37,0,.65-.14.55.13.86-.25.85.15.23,0,2.09.07.32-.14.17-.15,1.27-.18.37.16.42-.08.2-.05,1.14-.36,1c.28.28.42.48.42.58l-.29.49a1.67,1.67,0,0,1,.19.81l.35-.25.14-.44.58-1.11.27-.79a.71.71,0,0,0,.6-.72,3.58,3.58,0,0,0,.54-.83l.16-.44a1.93,1.93,0,0,1,.36-.55l0-.45-.11-.1.25-.21.08.1.6-.69a.43.43,0,0,0,.29-.42v.07s.72-.28.71-.68l.29-.07v-.18l.17-.08,0-.79h.28l0,1H44v-1.23c-.1-.12,0-.18,0-.18s0,0,0,.07v.07l0-.73h.12s.48.17.47-.3l.49-.37.08.14a1.34,1.34,0,0,0,.37-.74l.28-.11.12-.31.32,0a.93.93,0,0,1,.45-.2,1.15,1.15,0,0,0,.32-.07l-.08-.14a4.66,4.66,0,0,1,1-.43c.18,0,.4.16.67.48.2,0,.3.13.3.32l.37.27a5.13,5.13,0,0,0,.58,1.24v2.89l.08,1.52.92.36v2.71l-1,.49v.92l.32.77-.15.93a2.3,2.3,0,0,1,.26,1.1l.57.44v.45Z"/><path class="cls-1" d="M66.87,273.69a1.21,1.21,0,0,1,.29.58,1.48,1.48,0,0,1-.34.58,3.4,3.4,0,0,0-.52.95l-.29,0-.4.74-.47.08-1,.64-.19.38-.32,0-.33.36h-.2l-.12-.08-.28,0a1.07,1.07,0,0,0-.77.37l-.26-.17a1.85,1.85,0,0,1-.68.18,1.27,1.27,0,0,1-.74-.17,2.58,2.58,0,0,1-.54,0l-.24-.17c-.74,0-1.23-.21-1.44-.55V277l-.72-.31-.17-.38a3.5,3.5,0,0,1-.11-.47v-.28l-.82-1.75.06-1.25.76-.71V271l-.41-.67-.09-.49a.71.71,0,0,0,.28-.41,1.75,1.75,0,0,1,.23-.55,8.82,8.82,0,0,1-.18-.92l.36-.28-.37-.35a1.53,1.53,0,0,0,.28-.53l-.22-1.1A2.54,2.54,0,0,1,57,265a.69.69,0,0,0,.54.32,4.63,4.63,0,0,0,.78-.15.71.71,0,0,1,0-.26.54.54,0,0,1,.31-.45,6.31,6.31,0,0,1,.88-1.71.83.83,0,0,0,.36-.71H60l.2-.4.24-.1a1.44,1.44,0,0,1,.41-.54,2.68,2.68,0,0,0,1.09-.87.81.81,0,0,0,.34,0s.14-.14.31-.42l.74-.23a.49.49,0,0,1,.36.21l.38-.07.2.38h.24l.83,1h-.22a.56.56,0,0,0,.25.36l-.17.07a1.36,1.36,0,0,1,.7,1.38l-.11.4.13,1-.19.16-.43,1.07-.78.9,0,.51a12,12,0,0,1-2.3,1.46.27.27,0,0,1-.25.21,1,1,0,0,1-.31-.06l-.86.55h-.52l-.75.32-.33-.17a3.22,3.22,0,0,0-.82-.13,1.63,1.63,0,0,0-.58,1.32l-.27.3a3.1,3.1,0,0,1-.18.92l-.21.11.24,1.29-.22.18.05.4,0,.49a4.89,4.89,0,0,0,.1.66c.07.36.18.57.32.63-.06.16.07.36.39.59a3,3,0,0,0,1,.48v.42l1,.13,1.43.05,1-.12a4.66,4.66,0,0,1,.85-.47l.29-.41h.36l0-.18a3.16,3.16,0,0,0,.91-.36.29.29,0,0,0,.08-.18.38.38,0,0,1,.34-.21l.11-.22a1.18,1.18,0,0,0,1-1A.73.73,0,0,1,66.87,273.69ZM64,265c.1,0,.28-.16.53-.45l.11-.44a7.09,7.09,0,0,0,.57-1,1.56,1.56,0,0,0,.07-.52,3.93,3.93,0,0,0-.29-1.08l-.83-.24a2.15,2.15,0,0,1-.42.07l-.24-.07a.44.44,0,0,0-.41.33,3.79,3.79,0,0,0-1.1.29l-.11.25-.16,0-.11,0a.19.19,0,0,0-.09.05l-.08.09a.41.41,0,0,0-.07.11l-.06.16a1,1,0,0,0-.05.16A1.54,1.54,0,0,1,61,263l-.29.33-.57,1-.3.24a.82.82,0,0,0-.21.47,7.79,7.79,0,0,1-1,1.75l.28.14.14.3.69.18a3.49,3.49,0,0,1,1.23-.51l.11-.21a1.48,1.48,0,0,0,.32.06.48.48,0,0,0,.38-.22l.48-.07.29-.46h.28l.2-.4a1.48,1.48,0,0,0,1-.47Z"/><path class="cls-2" d="M83,269v9H80V254h7a9.69,9.69,0,0,1,6.36,1.88,6.54,6.54,0,0,1,2.26,5.32,7.11,7.11,0,0,1-2.51,5.61A9.93,9.93,0,0,1,86.38,269Zm0-13v10h3.12a7.24,7.24,0,0,0,4.72-1.35,4.7,4.7,0,0,0,1.62-3.82q0-4.83-6-4.83Z"/><path class="cls-2" d="M115,270H102.21a6.58,6.58,0,0,0,1.64,4.73,5.82,5.82,0,0,0,4.32,1.58,10,10,0,0,0,5.83-1.94V277a11.84,11.84,0,0,1-6.53,1.67,7.87,7.87,0,0,1-6.08-2.38,9.48,9.48,0,0,1-2.21-6.71,9.35,9.35,0,0,1,2.41-6.66,7.93,7.93,0,0,1,6-2.57,7,7,0,0,1,5.55,2.22,8.51,8.51,0,0,1,1.86,6.17Zm-2.89-2a5.56,5.56,0,0,0-1.23-3.78,4.23,4.23,0,0,0-3.34-1.35,4.84,4.84,0,0,0-3.51,1.42,6.32,6.32,0,0,0-1.79,3.71Z"/><path class="cls-2" d="M129,263.6a3.4,3.4,0,0,0-2.16-.56,3.77,3.77,0,0,0-3.13,1.69,19.64,19.64,0,0,0-1.71,4.61V279h-3V261h3v4h.52a5.68,5.68,0,0,1,1.91-3.51,4.46,4.46,0,0,1,2.87-1,4.72,4.72,0,0,1,1.7.23Z"/><path class="cls-2" d="M145,277.46a12.08,12.08,0,0,1-5.32,1.21,8.47,8.47,0,0,1-6.31-2.43,8.62,8.62,0,0,1-2.39-6.32,9.45,9.45,0,0,1,2.58-6.94,9.27,9.27,0,0,1,6.9-2.63c1.61,0,3,.29,3.54.86v2.87a4.51,4.51,0,0,0-3.64-1.37,6,6,0,0,0-4.6,1.92,7.15,7.15,0,0,0-1.79,5.05,6.77,6.77,0,0,0,1.69,4.86,5.94,5.94,0,0,0,4.52,1.77,9.29,9.29,0,0,0,4.82-1.52Z"/><path class="cls-2" d="M164,270H150.88a6.58,6.58,0,0,0,1.64,4.73,5.8,5.8,0,0,0,4.31,1.58,11.88,11.88,0,0,0,6.17-1.94V277a13.88,13.88,0,0,1-6.86,1.67,7.87,7.87,0,0,1-6.08-2.38,9.48,9.48,0,0,1-2.21-6.71,9.35,9.35,0,0,1,2.41-6.66,7.91,7.91,0,0,1,6-2.57,7,7,0,0,1,5.55,2.22,10.41,10.41,0,0,1,2.19,6.17Zm-3.22-2a5.56,5.56,0,0,0-1.23-3.78,4.23,4.23,0,0,0-3.34-1.35,4.84,4.84,0,0,0-3.51,1.42,6.32,6.32,0,0,0-1.79,3.71Z"/><path class="cls-2" d="M171.07,276H171v11h-3V261h3v3h.07a7.05,7.05,0,0,1,6.37-3.52,6.87,6.87,0,0,1,5.56,2.37,9.56,9.56,0,0,1,2,6.36,10.61,10.61,0,0,1-2.25,7.09A7.62,7.62,0,0,1,176.6,279,6.24,6.24,0,0,1,171.07,276Zm-.07-7.33v2.45a5.08,5.08,0,0,0,1.47,3.68,5.41,5.41,0,0,0,7.9-.43,8.65,8.65,0,0,0,1.51-5.42,6.84,6.84,0,0,0-1.41-4.58,4.74,4.74,0,0,0-3.82-1.66,5.3,5.3,0,0,0-4.1,1.7A6.1,6.1,0,0,0,171,268.67Z"/><path class="cls-2" d="M198,278a5.43,5.43,0,0,1-2.54.51q-4.46,0-4.46-4.77V263h-3v-2h3v-4.51l2-.91V261h5v2h-5v10a15.16,15.16,0,0,0,1.16,2.51,2.56,2.56,0,0,0,2.07.75,4.67,4.67,0,0,0,1.77-.58Z"/><path class="cls-2" d="M203.54,256.32a1.92,1.92,0,0,1-1.34-.51,1.82,1.82,0,0,1,0-2.61,1.88,1.88,0,0,1,1.34-.52,1.94,1.94,0,0,1,1.37.52,1.72,1.72,0,0,1,.56,1.31,1.71,1.71,0,0,1-.56,1.28A1.94,1.94,0,0,1,203.54,256.32ZM205,279h-3V261h3Z"/><path class="cls-2" d="M218.52,278.67a8.63,8.63,0,0,1-6.46-2.45,8.85,8.85,0,0,1-2.42-6.5,8.64,8.64,0,0,1,9.31-9.37,8.42,8.42,0,0,1,6.38,2.41,9.35,9.35,0,0,1,2.29,6.68,9.19,9.19,0,0,1-2.47,6.71A8.87,8.87,0,0,1,218.52,278.67Zm.22-16a5.66,5.66,0,0,0-4.46,1.84,7.3,7.3,0,0,0-1.64,5.07,6.93,6.93,0,0,0,1.66,4.9,5.72,5.72,0,0,0,4.44,1.79,5.44,5.44,0,0,0,4.36-1.76,7.43,7.43,0,0,0,1.52-5,7.57,7.57,0,0,0-1.52-5.06A5.42,5.42,0,0,0,218.74,262.71Z"/><path class="cls-2" d="M247,278h-3V268q0-5.56-4.1-5.57a4.47,4.47,0,0,0-3.51,1.58,5.79,5.79,0,0,0-1.39,4v11h-3V261h3v2h.07a6.46,6.46,0,0,1,5.88-3.41,5.46,5.46,0,0,1,4.49,1.91A8.48,8.48,0,0,1,247,267Z"/><path class="cls-3" d="M40,37H174.13A39.87,39.87,0,0,1,214,76.87V216a0,0,0,0,1,0,0H40a0,0,0,0,1,0,0V37A0,0,0,0,1,40,37Z"/><path class="cls-4" d="M76,79h74.05A32.95,32.95,0,0,1,183,111.95V185a0,0,0,0,1,0,0H76a0,0,0,0,1,0,0V79A0,0,0,0,1,76,79Z"/><path class="cls-5" d="M97.51,0H119a0,0,0,0,1,0,0V117a0,0,0,0,1,0,0H0a0,0,0,0,1,0,0V97.51A97.51,97.51,0,0,1,97.51,0Z"/><path class="cls-6" d="M22.5,153h94a.5.5,0,0,1,.5.5v86a.5.5,0,0,1-.5.5H91a69,69,0,0,1-69-69V153.5A.5.5,0,0,1,22.5,153Z"/><rect class="cls-7" x="75" y="79" width="44" height="38"/><rect class="cls-8" x="76" y="154" width="41" height="32"/><path class="cls-9" d="M157,124H267a0,0,0,0,1,0,0v27.76A88.24,88.24,0,0,1,178.76,240H157a0,0,0,0,1,0,0V124A0,0,0,0,1,157,124Z"/><rect class="cls-10" x="145" y="115" width="24" height="25" rx="3.18"/></g></g></svg>